<?xml version="1.0" encoding="utf-8"?>
<!-- Generator: Adobe Illustrator 25.4.1, SVG Export Plug-In . SVG Version: 6.00 Build 0)  -->
<svg version="1.1" id="Layer_1" xmlns="http://www.w3.org/2000/svg" xmlns:xlink="http://www.w3.org/1999/xlink" x="0px" y="0px"
	 viewBox="0 0 24 24" style="enable-background:new 0 0 24 24;" xml:space="preserve">
<style type="text/css">
	.st0{fill:#1E1E1E;}
</style>
<path class="st0" d="M7,18h2v-2h2v-2H9v-2H7v2H5v2h2V18z M13,14.5h6V13h-6V14.5z M13,17.5h4V16h-4V17.5z M4,22c-0.5,0-1-0.2-1.4-0.6
	S2,20.5,2,20V9c0-0.6,0.2-1,0.6-1.4C3,7.2,3.5,7,4,7h5V4c0-0.5,0.2-1,0.6-1.4S10.4,2,11,2h2c0.6,0,1,0.2,1.4,0.6S15,3.4,15,4v3h5
	c0.6,0,1,0.2,1.4,0.6C21.8,8,22,8.4,22,9v11c0,0.5-0.2,1-0.6,1.4S20.6,22,20,22H4z M4,20h16V9h-5c0,0.6-0.2,1-0.6,1.4
	C14,10.8,13.6,11,13,11h-2c-0.6,0-1-0.2-1.4-0.6C9.2,10,9,9.6,9,9H4V20z M11,9h2V4h-2V9z"/>
</svg>
